# Blender v2.78 (sub 0) OBJ File: 'Plate.blend'
# www.blender.org
o Plate_Circle
v 0.000000 0.000000 -0.544628
v -0.106252 0.000000 -0.534163
v -0.208420 0.000000 -0.503170
v -0.302579 0.000000 -0.452841
v -0.385110 0.000000 -0.385110
v -0.452841 0.000000 -0.302579
v -0.503170 0.000000 -0.208420
v -0.534163 0.000000 -0.106251
v -0.544628 0.000000 0.000000
v -0.534163 0.000000 0.106252
v -0.503170 0.000000 0.208420
v -0.452841 0.000000 0.302579
v -0.385110 0.000000 0.385110
v -0.302579 0.000000 0.452842
v -0.208420 0.000000 0.503171
v -0.106251 0.000000 0.534163
v 0.000000 0.000000 0.544628
v 0.106252 0.000000 0.534163
v 0.208420 0.000000 0.503170
v 0.302579 0.000000 0.452841
v 0.385110 0.000000 0.385110
v 0.452842 0.000000 0.302579
v 0.503171 0.000000 0.208420
v 0.534163 0.000000 0.106251
v 0.544628 0.000000 -0.000000
v 0.534163 0.000000 -0.106252
v 0.503170 0.000000 -0.208420
v 0.452841 0.000000 -0.302579
v 0.385110 0.000000 -0.385110
v 0.302578 0.000000 -0.452842
v 0.208419 0.000000 -0.503171
v 0.106251 0.000000 -0.534163
v 0.000000 0.051667 -0.818622
v -0.159705 0.051667 -0.802893
v -0.313273 0.051667 -0.756308
v -0.454802 0.051667 -0.680659
v -0.578853 0.051667 -0.578853
v -0.680660 0.051667 -0.454802
v -0.756309 0.051667 -0.313273
v -0.802893 0.051667 -0.159705
v -0.818623 0.051667 0.000000
v -0.802893 0.051667 0.159705
v -0.756309 0.051667 0.313273
v -0.680660 0.051667 0.454803
v -0.578853 0.051667 0.578854
v -0.454802 0.051667 0.680660
v -0.313273 0.051667 0.756309
v -0.159705 0.051667 0.802893
v 0.000000 0.051667 0.818623
v 0.159706 0.051667 0.802893
v 0.313274 0.051667 0.756309
v 0.454803 0.051667 0.680660
v 0.578854 0.051667 0.578853
v 0.680660 0.051667 0.454802
v 0.756309 0.051667 0.313273
v 0.802893 0.051667 0.159705
v 0.818623 0.051667 -0.000001
v 0.802893 0.051667 -0.159706
v 0.756308 0.051667 -0.313274
v 0.680659 0.051667 -0.454803
v 0.578853 0.051667 -0.578854
v 0.454801 0.051667 -0.680660
v 0.313272 0.051667 -0.756309
v 0.159704 0.051667 -0.802893
v 0.313272 0.075497 -0.756309
v 0.454801 0.075497 -0.680660
v 0.578853 0.075497 -0.578854
v 0.680659 0.075497 -0.454803
v 0.756308 0.075497 -0.313274
v 0.802893 0.075497 -0.159706
v 0.818623 0.075497 -0.000001
v 0.802893 0.075497 0.159705
v 0.756309 0.075497 0.313273
v 0.680660 0.075497 0.454802
v 0.578854 0.075497 0.578853
v 0.454803 0.075497 0.680660
v 0.313274 0.075497 0.756309
v 0.159706 0.075497 0.802893
v 0.000000 0.075497 0.818623
v -0.159705 0.075497 0.802893
v -0.313273 0.075497 0.756309
v -0.454802 0.075497 0.680660
v -0.578853 0.075497 0.578854
v -0.000000 0.000000 -0.000000
v -0.680660 0.075497 0.454803
v -0.756309 0.075497 0.313273
v -0.802893 0.075497 0.159705
v -0.818623 0.075497 0.000000
v -0.802893 0.075497 -0.159705
v -0.756309 0.075497 -0.313273
v -0.680660 0.075497 -0.454802
v -0.578853 0.075497 -0.578853
v -0.454802 0.075497 -0.680659
v -0.313273 0.075497 -0.756308
v -0.159705 0.075497 -0.802893
v 0.000000 0.075497 -0.818622
v 0.159704 0.075497 -0.802893
v 0.279352 0.069596 -0.674417
v 0.405557 0.069596 -0.606960
v 0.516176 0.069596 -0.516177
v 0.606959 0.069596 -0.405558
v 0.674417 0.069596 -0.279353
v 0.715958 0.069596 -0.142413
v 0.729984 0.069596 -0.000000
v 0.715958 0.069596 0.142412
v 0.674418 0.069596 0.279353
v 0.606960 0.069596 0.405557
v 0.516177 0.069596 0.516177
v 0.405558 0.069596 0.606960
v 0.279353 0.069596 0.674417
v 0.142413 0.069596 0.715958
v 0.000000 0.069596 0.729984
v -0.142413 0.069596 0.715958
v -0.279353 0.069596 0.674418
v -0.405557 0.069596 0.606960
v -0.516177 0.069596 0.516177
v -0.606960 0.069596 0.405558
v -0.674417 0.069596 0.279353
v -0.715958 0.069596 0.142413
v -0.729984 0.069596 0.000000
v -0.715958 0.069596 -0.142413
v -0.674417 0.069596 -0.279353
v -0.606960 0.069596 -0.405557
v -0.516177 0.069596 -0.516177
v -0.405557 0.069596 -0.606959
v -0.279353 0.069596 -0.674417
v -0.142413 0.069596 -0.715957
v 0.000000 0.069596 -0.729984
v 0.142412 0.069596 -0.715958
v 0.243728 0.044178 -0.588414
v 0.353839 0.044178 -0.529559
v 0.450352 0.044178 -0.450353
v 0.529559 0.044178 -0.353840
v 0.588414 0.044178 -0.243730
v 0.624657 0.044178 -0.124253
v 0.636895 0.044178 -0.000000
v 0.624657 0.044178 0.124252
v 0.588415 0.044178 0.243729
v 0.529559 0.044178 0.353840
v 0.450353 0.044178 0.450353
v 0.353840 0.044178 0.529559
v 0.243730 0.044178 0.588414
v 0.124252 0.044178 0.624657
v 0.000000 0.044178 0.636895
v -0.124252 0.044178 0.624658
v -0.243729 0.044178 0.588415
v -0.353840 0.044178 0.529559
v -0.450353 0.044178 0.450353
v -0.529559 0.044178 0.353840
v -0.588414 0.044178 0.243729
v -0.624657 0.044178 0.124252
v -0.636895 0.044178 0.000000
v -0.624657 0.044178 -0.124252
v -0.588414 0.044178 -0.243729
v -0.529559 0.044178 -0.353840
v -0.450353 0.044178 -0.450353
v -0.353840 0.044178 -0.529559
v -0.243729 0.044178 -0.588414
v -0.124252 0.044178 -0.624657
v 0.000000 0.044178 -0.636895
v 0.124251 0.044178 -0.624657
v 0.000000 0.044178 0.000000
vt 0.2150 0.0903
vt 0.2485 0.0568
vt 0.2273 0.0394
vt 0.2010 0.0788
vt 0.0591 0.1736
vt 0.0127 0.1828
vt 0.0206 0.2090
vt 0.0644 0.1909
vt 0.2265 0.1043
vt 0.2659 0.0779
vt 0.0574 0.1555
vt 0.0100 0.1556
vt 0.2350 0.1203
vt 0.2788 0.1021
vt 0.0591 0.1375
vt 0.0127 0.1283
vt 0.2403 0.1376
vt 0.2868 0.1283
vt 0.0644 0.1202
vt 0.0206 0.1021
vt 0.2421 0.1556
vt 0.2894 0.1556
vt 0.0729 0.1042
vt 0.0335 0.0779
vt 0.2403 0.1736
vt 0.2868 0.1828
vt 0.0844 0.0903
vt 0.0509 0.0568
vt 0.2350 0.1909
vt 0.2788 0.2090
vt 0.0984 0.0788
vt 0.0721 0.0394
vt 0.2265 0.2069
vt 0.2659 0.2332
vt 0.1144 0.0703
vt 0.0962 0.0265
vt 0.2150 0.2209
vt 0.2485 0.2544
vt 0.1317 0.0650
vt 0.1224 0.0185
vt 0.1144 0.2409
vt 0.0962 0.2847
vt 0.1224 0.2926
vt 0.1317 0.2461
vt 0.2010 0.2324
vt 0.2273 0.2718
vt 0.1497 0.0632
vt 0.1497 0.0158
vt 0.0984 0.2323
vt 0.0721 0.2718
vt 0.1850 0.2409
vt 0.2032 0.2847
vt 0.1677 0.0650
vt 0.1770 0.0185
vt 0.0844 0.2208
vt 0.0509 0.2544
vt 0.1677 0.2461
vt 0.1770 0.2926
vt 0.1851 0.0703
vt 0.2032 0.0265
vt 0.0729 0.2069
vt 0.0335 0.2332
vt 0.1497 0.2479
vt 0.1497 0.2953
vt 0.1497 0.1556
vt 0.8125 0.9359
vt 0.8125 0.9591
vt 0.8750 0.9591
vt 0.8750 0.9359
vt 0.3750 0.9929
vt 0.3750 0.9697
vt 0.3125 0.9697
vt 0.3125 0.9929
vt 0.4375 0.9359
vt 0.4375 0.9591
vt 0.5000 0.9591
vt 0.5000 0.9359
vt 0.7500 0.9359
vt 0.7500 0.9591
vt 0.4375 0.9929
vt 0.4375 0.9697
vt 0.3750 0.9359
vt 0.3750 0.9591
vt 0.6875 0.9359
vt 0.6875 0.9591
vt 0.5000 0.9929
vt 0.5000 0.9697
vt 0.3125 0.9359
vt 0.3125 0.9591
vt 0.6250 0.9359
vt 0.6250 0.9591
vt 0.5625 0.9929
vt 0.5625 0.9697
vt 0.2500 0.9359
vt 0.2500 0.9591
vt 0.5625 0.9359
vt 0.5625 0.9591
vt 0.6250 0.9929
vt 0.6250 0.9697
vt 0.1875 0.9359
vt 0.1875 0.9591
vt 0.6875 0.9929
vt 0.6875 0.9697
vt 0.1250 0.9359
vt 0.1250 0.9591
vt 0.7500 0.9929
vt 0.7500 0.9697
vt 0.0625 0.9359
vt 0.0625 0.9591
vt 0.8125 0.9929
vt 0.8125 0.9697
vt 0.0000 0.9359
vt 0.0000 0.9591
vt 0.8750 0.9929
vt 0.8750 0.9697
vt 0.0625 0.9929
vt 0.0625 0.9697
vt 0.0000 0.9697
vt 0.0000 0.9929
vt 0.9375 0.9929
vt 0.9375 0.9697
vt 0.1250 0.9929
vt 0.1250 0.9697
vt 1.0000 0.9929
vt 1.0000 0.9697
vt 0.1875 0.9929
vt 0.1875 0.9697
vt 0.9375 0.9359
vt 0.9375 0.9591
vt 1.0000 0.9591
vt 1.0000 0.9359
vt 0.2500 0.9929
vt 0.2500 0.9697
vt 0.1796 0.4313
vt 0.2231 0.4400
vt 0.2438 0.3716
vt 0.2028 0.3546
vt 0.8698 0.8003
vt 0.8384 0.7690
vt 0.7832 0.8143
vt 0.8078 0.8512
vt 0.2775 0.3086
vt 0.2406 0.2839
vt 0.7202 0.8480
vt 0.7371 0.8889
vt 0.6604 0.1100
vt 0.6518 0.1535
vt 0.7202 0.1743
vt 0.7372 0.1333
vt 0.3228 0.2533
vt 0.2915 0.2219
vt 0.6518 0.8687
vt 0.6604 0.9122
vt 0.3781 0.2080
vt 0.3534 0.1711
vt 0.5806 0.8757
vt 0.5806 0.9201
vt 0.7832 0.2080
vt 0.8079 0.1711
vt 0.4411 0.1743
vt 0.4242 0.1333
vt 0.5095 0.8687
vt 0.5009 0.9122
vt 0.8385 0.2533
vt 0.8698 0.2219
vt 0.5095 0.1535
vt 0.5009 0.1100
vt 0.4411 0.8480
vt 0.4241 0.8889
vt 0.8838 0.3086
vt 0.9207 0.2839
vt 0.5806 0.1465
vt 0.5807 0.1022
vt 0.3781 0.8143
vt 0.3534 0.8511
vt 0.9175 0.3716
vt 0.9585 0.3546
vt 0.3229 0.7689
vt 0.2915 0.8003
vt 0.9383 0.4400
vt 0.9818 0.4314
vt 0.2775 0.7137
vt 0.2406 0.7383
vt 0.9453 0.5111
vt 0.9896 0.5112
vt 0.2438 0.6507
vt 0.2028 0.6676
vt 0.9383 0.5823
vt 0.9818 0.5910
vt 0.2231 0.5823
vt 0.1796 0.5909
vt 0.9175 0.6507
vt 0.9585 0.6677
vt 0.2161 0.5111
vt 0.1717 0.5111
vt 0.8838 0.7137
vt 0.9206 0.7384
vt 0.6424 0.2007
vt 0.7018 0.2187
vt 0.3569 0.2873
vt 0.4048 0.2479
vt 0.6424 0.8216
vt 0.5806 0.8276
vt 0.7565 0.2480
vt 0.4595 0.2187
vt 0.5189 0.8215
vt 0.8045 0.2873
vt 0.5189 0.2007
vt 0.4595 0.8035
vt 0.8438 0.3353
vt 0.5807 0.1946
vt 0.4048 0.7743
vt 0.8731 0.3900
vt 0.3568 0.7349
vt 0.8911 0.4494
vt 0.3175 0.6870
vt 0.8972 0.5112
vt 0.2882 0.6322
vt 0.8911 0.5729
vt 0.2702 0.5729
vt 0.8730 0.6323
vt 0.2641 0.5111
vt 0.8438 0.6870
vt 0.2702 0.4494
vt 0.8044 0.7350
vt 0.2882 0.3900
vt 0.7565 0.7743
vt 0.3175 0.3353
vt 0.7017 0.8036
vt 0.5806 0.5111
vn 0.0549 -0.9951 0.0822
vn 0.4362 -0.6193 0.6528
vn 0.3005 -0.6193 0.7254
vn 0.0378 -0.9951 0.0913
vn -0.0913 -0.9951 -0.0378
vn -0.7254 -0.6193 -0.3005
vn -0.6528 -0.6193 -0.4362
vn -0.0822 -0.9951 -0.0549
vn 0.0699 -0.9951 0.0699
vn 0.5552 -0.6193 0.5552
vn -0.0969 -0.9951 -0.0193
vn -0.7700 -0.6193 -0.1532
vn 0.0822 -0.9951 0.0549
vn 0.6528 -0.6193 0.4362
vn -0.0988 -0.9951 0.0000
vn -0.7851 -0.6193 0.0000
vn 0.0913 -0.9951 0.0378
vn 0.7254 -0.6193 0.3005
vn -0.0969 -0.9951 0.0193
vn -0.7700 -0.6193 0.1532
vn 0.0969 -0.9951 0.0193
vn 0.7700 -0.6193 0.1531
vn -0.0913 -0.9951 0.0378
vn -0.7254 -0.6193 0.3005
vn 0.0988 -0.9951 0.0000
vn 0.7851 -0.6193 0.0000
vn -0.0822 -0.9951 0.0549
vn -0.6528 -0.6193 0.4362
vn 0.0969 -0.9951 -0.0193
vn 0.7700 -0.6193 -0.1532
vn -0.0699 -0.9951 0.0699
vn -0.5552 -0.6193 0.5552
vn 0.0913 -0.9951 -0.0378
vn 0.7254 -0.6193 -0.3005
vn -0.0549 -0.9951 0.0822
vn -0.4362 -0.6193 0.6528
vn 0.0822 -0.9951 -0.0549
vn 0.6528 -0.6193 -0.4362
vn -0.0378 -0.9951 0.0913
vn -0.3005 -0.6193 0.7254
vn -0.0193 -0.9951 -0.0969
vn -0.1532 -0.6193 -0.7700
vn 0.0000 -0.6193 -0.7851
vn 0.0000 -0.9951 -0.0988
vn 0.0699 -0.9951 -0.0699
vn 0.5552 -0.6193 -0.5552
vn -0.0193 -0.9951 0.0969
vn -0.1531 -0.6193 0.7700
vn -0.0378 -0.9951 -0.0913
vn -0.3005 -0.6193 -0.7254
vn 0.0549 -0.9951 -0.0822
vn 0.4362 -0.6193 -0.6528
vn 0.0000 -0.9951 0.0988
vn 0.0000 -0.6193 0.7851
vn -0.0549 -0.9951 -0.0822
vn -0.4362 -0.6193 -0.6528
vn 0.0378 -0.9951 -0.0913
vn 0.3005 -0.6193 -0.7254
vn 0.0193 -0.9951 0.0969
vn 0.1532 -0.6193 0.7700
vn -0.0699 -0.9951 -0.0699
vn -0.5552 -0.6193 -0.5552
vn 0.0193 -0.9951 -0.0969
vn 0.1531 -0.6193 -0.7700
vn 0.0000 -1.0000 0.0000
vn 0.5871 0.7081 -0.3923
vn 0.6523 0.7081 -0.2702
vn -0.2702 0.7081 0.6523
vn -0.3923 0.7081 0.5871
vn -0.1377 0.7081 -0.6925
vn 0.0000 0.7081 -0.7061
vn 0.4993 0.7081 -0.4993
vn -0.1377 0.7081 0.6925
vn -0.2702 0.7081 -0.6523
vn 0.3923 0.7081 -0.5871
vn 0.0000 0.7081 0.7061
vn -0.3923 0.7081 -0.5871
vn 0.2702 0.7081 -0.6523
vn 0.1377 0.7081 0.6925
vn -0.4993 0.7081 -0.4993
vn 0.1377 0.7081 -0.6925
vn 0.2702 0.7081 0.6523
vn -0.5871 0.7081 -0.3923
vn 0.3923 0.7081 0.5871
vn -0.6523 0.7081 -0.2702
vn 0.4993 0.7081 0.4993
vn -0.6925 0.7081 -0.1377
vn 0.5871 0.7081 0.3923
vn -0.7061 0.7081 0.0000
vn 0.6523 0.7081 0.2702
vn -0.6925 0.7081 0.1377
vn 0.6925 0.7081 0.1377
vn -0.6523 0.7081 0.2702
vn 0.7061 0.7081 0.0000
vn -0.5871 0.7081 0.3923
vn 0.6925 0.7081 -0.1377
vn -0.4993 0.7081 0.4993
vn 0.1596 0.9872 0.0000
vn 0.1566 0.9872 0.0311
vn -0.1327 0.9872 -0.0887
vn -0.1129 0.9872 -0.1129
vn 0.1475 0.9872 0.0611
vn -0.0887 0.9872 -0.1327
vn 0.0000 0.9872 0.1596
vn -0.0311 0.9872 0.1566
vn 0.1327 0.9872 0.0887
vn -0.0611 0.9872 -0.1475
vn 0.1129 0.9872 0.1129
vn -0.0311 0.9872 -0.1566
vn -0.0611 0.9872 0.1475
vn 0.0887 0.9872 0.1327
vn 0.0000 0.9872 -0.1596
vn -0.0887 0.9872 0.1327
vn 0.0611 0.9872 0.1475
vn 0.0311 0.9872 -0.1566
vn -0.1129 0.9872 0.1129
vn 0.0311 0.9872 0.1566
vn 0.0611 0.9872 -0.1475
vn -0.1327 0.9872 0.0887
vn 0.0887 0.9872 -0.1327
vn -0.1475 0.9872 0.0611
vn 0.1129 0.9872 -0.1129
vn -0.1566 0.9872 0.0311
vn 0.1327 0.9872 -0.0887
vn -0.1596 0.9872 0.0000
vn 0.1475 0.9872 -0.0611
vn -0.1566 0.9872 -0.0311
vn 0.1566 0.9872 -0.0311
vn -0.1475 0.9872 -0.0611
vn 0.0000 0.9900 0.1410
vn -0.0275 0.9900 0.1383
vn 0.1173 0.9900 0.0783
vn 0.0997 0.9900 0.0997
vn -0.0540 0.9900 -0.1303
vn -0.0275 0.9900 -0.1383
vn -0.0540 0.9900 0.1303
vn 0.0783 0.9900 0.1173
vn 0.0000 0.9900 -0.1410
vn -0.0783 0.9900 0.1173
vn 0.0540 0.9900 0.1303
vn 0.0275 0.9900 -0.1383
vn -0.0997 0.9900 0.0997
vn 0.0275 0.9900 0.1383
vn 0.0540 0.9900 -0.1303
vn -0.1173 0.9900 0.0783
vn 0.0783 0.9900 -0.1173
vn -0.1303 0.9900 0.0540
vn 0.0997 0.9900 -0.0997
vn -0.1383 0.9900 0.0275
vn 0.1173 0.9900 -0.0783
vn -0.1410 0.9900 0.0000
vn 0.1303 0.9900 -0.0540
vn -0.1383 0.9900 -0.0275
vn 0.1383 0.9900 -0.0275
vn -0.1303 0.9900 -0.0540
vn 0.1410 0.9900 0.0000
vn -0.1173 0.9900 -0.0783
vn 0.1383 0.9900 0.0275
vn -0.0997 0.9900 -0.0997
vn 0.1303 0.9900 0.0540
vn -0.0783 0.9900 -0.1173
vn 0.0000 1.0000 0.0000
s 1
f 20/1/1 52/2/2 51/3/3 19/4/4
f 7/5/5 39/6/6 38/7/7 6/8/8
f 21/9/9 53/10/10 52/2/2 20/1/1
f 8/11/11 40/12/12 39/6/6 7/5/5
f 22/13/13 54/14/14 53/10/10 21/9/9
f 9/15/15 41/16/16 40/12/12 8/11/11
f 23/17/17 55/18/18 54/14/14 22/13/13
f 10/19/19 42/20/20 41/16/16 9/15/15
f 24/21/21 56/22/22 55/18/18 23/17/17
f 11/23/23 43/24/24 42/20/20 10/19/19
f 25/25/25 57/26/26 56/22/22 24/21/21
f 12/27/27 44/28/28 43/24/24 11/23/23
f 26/29/29 58/30/30 57/26/26 25/25/25
f 13/31/31 45/32/32 44/28/28 12/27/27
f 27/33/33 59/34/34 58/30/30 26/29/29
f 14/35/35 46/36/36 45/32/32 13/31/31
f 28/37/37 60/38/38 59/34/34 27/33/33
f 15/39/39 47/40/40 46/36/36 14/35/35
f 2/41/41 34/42/42 33/43/43 1/44/44
f 29/45/45 61/46/46 60/38/38 28/37/37
f 16/47/47 48/48/48 47/40/40 15/39/39
f 3/49/49 35/50/50 34/42/42 2/41/41
f 30/51/51 62/52/52 61/46/46 29/45/45
f 17/53/53 49/54/54 48/48/48 16/47/47
f 4/55/55 36/56/56 35/50/50 3/49/49
f 31/57/57 63/58/58 62/52/52 30/51/51
f 18/59/59 50/60/60 49/54/54 17/53/53
f 5/61/61 37/62/62 36/56/56 4/55/55
f 32/63/63 64/64/64 63/58/58 31/57/57
f 19/4/4 51/3/3 50/60/60 18/59/59
f 6/8/8 38/7/7 37/62/62 5/61/61
f 1/44/44 33/43/43 64/64/64 32/63/63
f 19/4/4 84/65/65 20/1/1
f 6/8/8 84/65/65 7/5/5
f 20/1/1 84/65/65 21/9/9
f 7/5/5 84/65/65 8/11/11
f 21/9/9 84/65/65 22/13/13
f 8/11/11 84/65/65 9/15/15
f 22/13/13 84/65/65 23/17/17
f 9/15/15 84/65/65 10/19/19
f 23/17/17 84/65/65 24/21/21
f 10/19/19 84/65/65 11/23/23
f 24/21/21 84/65/65 25/25/25
f 11/23/23 84/65/65 12/27/27
f 25/25/25 84/65/65 26/29/29
f 12/27/27 84/65/65 13/31/31
f 26/29/29 84/65/65 27/33/33
f 13/31/31 84/65/65 14/35/35
f 27/33/33 84/65/65 28/37/37
f 14/35/35 84/65/65 15/39/39
f 1/44/44 84/65/65 2/41/41
f 28/37/37 84/65/65 29/45/45
f 15/39/39 84/65/65 16/47/47
f 2/41/41 84/65/65 3/49/49
f 29/45/45 84/65/65 30/51/51
f 16/47/47 84/65/65 17/53/53
f 3/49/49 84/65/65 4/55/55
f 30/51/51 84/65/65 31/57/57
f 17/53/53 84/65/65 18/59/59
f 4/55/55 84/65/65 5/61/61
f 31/57/57 84/65/65 32/63/63
f 18/59/59 84/65/65 19/4/4
f 5/61/61 84/65/65 6/8/8
f 32/63/63 84/65/65 1/44/44
f 60/66/38 68/67/66 69/68/67 59/69/34
f 47/70/40 81/71/68 82/72/69 46/73/36
f 34/74/42 95/75/70 96/76/71 33/77/43
f 61/78/46 67/79/72 68/67/66 60/66/38
f 48/80/48 80/81/73 81/71/68 47/70/40
f 35/82/50 94/83/74 95/75/70 34/74/42
f 62/84/52 66/85/75 67/79/72 61/78/46
f 49/86/54 79/87/76 80/81/73 48/80/48
f 36/88/56 93/89/77 94/83/74 35/82/50
f 63/90/58 65/91/78 66/85/75 62/84/52
f 50/92/60 78/93/79 79/87/76 49/86/54
f 37/94/62 92/95/80 93/89/77 36/88/56
f 64/96/64 97/97/81 65/91/78 63/90/58
f 51/98/3 77/99/82 78/93/79 50/92/60
f 38/100/7 91/101/83 92/95/80 37/94/62
f 33/77/43 96/76/71 97/97/81 64/96/64
f 52/102/2 76/103/84 77/99/82 51/98/3
f 39/104/6 90/105/85 91/101/83 38/100/7
f 53/106/10 75/107/86 76/103/84 52/102/2
f 40/108/12 89/109/87 90/105/85 39/104/6
f 54/110/14 74/111/88 75/107/86 53/106/10
f 41/112/16 88/113/89 89/109/87 40/108/12
f 55/114/18 73/115/90 74/111/88 54/110/14
f 42/116/20 87/117/91 88/118/89 41/119/16
f 56/120/22 72/121/92 73/115/90 55/114/18
f 43/122/24 86/123/93 87/117/91 42/116/20
f 57/124/26 71/125/94 72/121/92 56/120/22
f 44/126/28 85/127/95 86/123/93 43/122/24
f 58/128/30 70/129/96 71/130/94 57/131/26
f 45/132/32 83/133/97 85/127/95 44/126/28
f 59/69/34 69/68/67 70/129/96 58/128/30
f 46/73/36 82/72/69 83/133/97 45/132/32
f 88/134/89 120/135/98 121/136/99 89/137/87
f 74/138/88 107/139/100 108/140/101 75/141/86
f 89/137/87 121/136/99 122/142/102 90/143/85
f 75/141/86 108/140/101 109/144/103 76/145/84
f 96/146/71 128/147/104 129/148/105 97/149/81
f 90/143/85 122/142/102 123/150/106 91/151/83
f 76/145/84 109/144/103 110/152/107 77/153/82
f 91/151/83 123/150/106 124/154/108 92/155/80
f 77/153/82 110/152/107 111/156/109 78/157/79
f 97/149/81 129/148/105 98/158/110 65/159/78
f 92/155/80 124/154/108 125/160/111 93/161/77
f 78/157/79 111/156/109 112/162/112 79/163/76
f 65/159/78 98/158/110 99/164/113 66/165/75
f 93/161/77 125/160/111 126/166/114 94/167/74
f 79/163/76 112/162/112 113/168/115 80/169/73
f 66/165/75 99/164/113 100/170/116 67/171/72
f 94/167/74 126/166/114 127/172/117 95/173/70
f 80/169/73 113/168/115 114/174/118 81/175/68
f 67/171/72 100/170/116 101/176/119 68/177/66
f 95/173/70 127/172/117 128/147/104 96/146/71
f 81/175/68 114/174/118 115/178/120 82/179/69
f 68/177/66 101/176/119 102/180/121 69/181/67
f 82/179/69 115/178/120 116/182/122 83/183/97
f 69/181/67 102/180/121 103/184/123 70/185/96
f 83/183/97 116/182/122 117/186/124 85/187/95
f 70/185/96 103/184/123 104/188/125 71/189/94
f 85/187/95 117/186/124 118/190/126 86/191/93
f 71/189/94 104/188/125 105/192/127 72/193/92
f 86/191/93 118/190/126 119/194/128 87/195/91
f 72/193/92 105/192/127 106/196/129 73/197/90
f 87/195/91 119/194/128 120/135/98 88/134/89
f 73/197/90 106/196/129 107/139/100 74/138/88
f 128/147/104 160/198/130 161/199/131 129/148/105
f 123/150/106 155/200/132 156/201/133 124/154/108
f 110/152/107 142/202/134 143/203/135 111/156/109
f 129/148/105 161/199/131 130/204/136 98/158/110
f 124/154/108 156/201/133 157/205/137 125/160/111
f 111/156/109 143/203/135 144/206/138 112/162/112
f 98/158/110 130/204/136 131/207/139 99/164/113
f 125/160/111 157/205/137 158/208/140 126/166/114
f 112/162/112 144/206/138 145/209/141 113/168/115
f 99/164/113 131/207/139 132/210/142 100/170/116
f 126/166/114 158/208/140 159/211/143 127/172/117
f 113/168/115 145/209/141 146/212/144 114/174/118
f 100/170/116 132/210/142 133/213/145 101/176/119
f 127/172/117 159/211/143 160/198/130 128/147/104
f 114/174/118 146/212/144 147/214/146 115/178/120
f 101/176/119 133/213/145 134/215/147 102/180/121
f 115/178/120 147/214/146 148/216/148 116/182/122
f 102/180/121 134/215/147 135/217/149 103/184/123
f 116/182/122 148/216/148 149/218/150 117/186/124
f 103/184/123 135/217/149 136/219/151 104/188/125
f 117/186/124 149/218/150 150/220/152 118/190/126
f 104/188/125 136/219/151 137/221/153 105/192/127
f 118/190/126 150/220/152 151/222/154 119/194/128
f 105/192/127 137/221/153 138/223/155 106/196/129
f 119/194/128 151/222/154 152/224/156 120/135/98
f 106/196/129 138/223/155 139/225/157 107/139/100
f 120/135/98 152/224/156 153/226/158 121/136/99
f 107/139/100 139/225/157 140/227/159 108/140/101
f 121/136/99 153/226/158 154/228/160 122/142/102
f 108/140/101 140/227/159 141/229/161 109/144/103
f 122/142/102 154/228/160 155/200/132 123/150/106
f 109/144/103 141/229/161 142/202/134 110/152/107
f 131/207/139 162/230/162 132/210/142
f 158/208/140 162/230/162 159/211/143
f 145/209/141 162/230/162 146/212/144
f 132/210/142 162/230/162 133/213/145
f 159/211/143 162/230/162 160/198/130
f 146/212/144 162/230/162 147/214/146
f 133/213/145 162/230/162 134/215/147
f 147/214/146 162/230/162 148/216/148
f 134/215/147 162/230/162 135/217/149
f 148/216/148 162/230/162 149/218/150
f 135/217/149 162/230/162 136/219/151
f 149/218/150 162/230/162 150/220/152
f 136/219/151 162/230/162 137/221/153
f 150/220/152 162/230/162 151/222/154
f 137/221/153 162/230/162 138/223/155
f 151/222/154 162/230/162 152/224/156
f 138/223/155 162/230/162 139/225/157
f 152/224/156 162/230/162 153/226/158
f 139/225/157 162/230/162 140/227/159
f 153/226/158 162/230/162 154/228/160
f 140/227/159 162/230/162 141/229/161
f 154/228/160 162/230/162 155/200/132
f 141/229/161 162/230/162 142/202/134
f 160/198/130 162/230/162 161/199/131
f 155/200/132 162/230/162 156/201/133
f 142/202/134 162/230/162 143/203/135
f 161/199/131 162/230/162 130/204/136
f 156/201/133 162/230/162 157/205/137
f 143/203/135 162/230/162 144/206/138
f 130/204/136 162/230/162 131/207/139
f 157/205/137 162/230/162 158/208/140
f 144/206/138 162/230/162 145/209/141
