# Blender v2.76 (sub 0) OBJ File: 'marker.blend'
# www.blender.org
o Cube_Cube.001
v -0.972443 -0.506616 0.553082
v -0.972443 0.493384 0.553082
v -0.972443 -0.506616 -0.863585
v -0.972443 0.493384 -0.863585
v 1.027557 -0.506616 0.553082
v 1.027557 0.493384 0.553082
v 1.027557 -0.506616 -0.863585
v 1.027557 0.493384 -0.863585
v 0.027557 0.493384 -0.863585
v 0.027557 -0.506616 -0.863585
v 0.027557 0.493384 1.553082
v 0.027557 -0.506616 1.553082
vn -1.000000 0.000000 0.000000
vn 0.000000 0.000000 -1.000000
vn 1.000000 0.000000 0.000000
vn -0.707100 0.000000 0.707100
vn 0.000000 -1.000000 0.000000
vn 0.000000 1.000000 0.000000
vn 0.707100 0.000000 0.707100
s off
f 2//1 4//1 3//1 1//1
f 9//2 8//2 7//2 10//2
f 8//3 6//3 5//3 7//3
f 11//4 2//4 1//4 12//4
f 12//5 10//5 7//5 5//5
f 11//6 9//6 4//6 2//6
f 6//6 8//6 9//6 11//6
f 1//5 3//5 10//5 12//5
f 6//7 11//7 12//7 5//7
f 4//2 9//2 10//2 3//2
